<?xml version="1.0" encoding="UTF-8"?>
<svg id="Layer_1" data-name="Layer 1" xmlns="http://www.w3.org/2000/svg" viewBox="0 0 1080 280">
  <defs>
    <style>
      .cls-1 {
        fill: #806cb1;
      }
    </style>
  </defs>
  <g>
    <path class="cls-1" d="M224.68,62.17l-35.97,124.11h-18.16l-28.85-99.89-29.91,99.89-17.98.18L59.09,62.17h17.27l27.07,105.23,29.91-105.23h18.16l28.49,104.88,27.24-104.88h17.45Z"/>
    <path class="cls-1" d="M310.86,91.64c5.93,3.15,10.59,7.87,13.98,14.16,3.38,6.29,5.07,13.95,5.07,22.97v57.51h-16.03v-55.2c0-9.73-2.43-17.18-7.3-22.35-4.87-5.16-11.52-7.75-19.94-7.75s-15.34,2.67-20.39,8.01c-5.05,5.34-7.57,13.12-7.57,23.33v53.95h-16.2V54.51h16.2v48.08c3.21-4.99,7.63-8.84,13.27-11.57,5.64-2.73,11.96-4.1,18.96-4.1,7.36,0,14.01,1.57,19.94,4.72Z"/>
    <path class="cls-1" d="M444.94,143.54h-77.99c.59,9.61,3.89,17.12,9.88,22.52,5.99,5.4,13.27,8.1,21.81,8.1,7,0,12.85-1.63,17.54-4.9,4.69-3.26,7.98-7.63,9.88-13.09h17.45c-2.61,9.38-7.83,17-15.67,22.88-7.83,5.88-17.57,8.81-29.2,8.81-9.26,0-17.54-2.08-24.84-6.23-7.3-4.15-13.03-10.06-17.18-17.72-4.16-7.66-6.23-16.53-6.23-26.62s2.02-18.93,6.05-26.53c4.03-7.6,9.7-13.44,17-17.54,7.3-4.1,15.7-6.14,25.19-6.14s17.45,2.02,24.57,6.05c7.12,4.04,12.61,9.59,16.47,16.65,3.86,7.06,5.79,15.05,5.79,23.95,0,3.09-.18,6.35-.53,9.79ZM424.64,114.43c-2.73-4.45-6.44-7.83-11.13-10.15-4.69-2.31-9.88-3.47-15.58-3.47-8.19,0-15.16,2.61-20.92,7.83-5.76,5.22-9.05,12.46-9.88,21.72h61.61c0-6.17-1.37-11.48-4.1-15.94Z"/>
    <path class="cls-1" d="M555.33,143.54h-77.99c.59,9.61,3.89,17.12,9.88,22.52,5.99,5.4,13.27,8.1,21.81,8.1,7,0,12.85-1.63,17.54-4.9,4.69-3.26,7.98-7.63,9.88-13.09h17.45c-2.61,9.38-7.83,17-15.67,22.88-7.83,5.88-17.57,8.81-29.2,8.81-9.26,0-17.54-2.08-24.84-6.23-7.3-4.15-13.03-10.06-17.18-17.72-4.16-7.66-6.23-16.53-6.23-26.62s2.02-18.93,6.05-26.53c4.03-7.6,9.7-13.44,17-17.54,7.3-4.1,15.7-6.14,25.19-6.14s17.45,2.02,24.57,6.05c7.12,4.04,12.61,9.59,16.47,16.65,3.86,7.06,5.79,15.05,5.79,23.95,0,3.09-.18,6.35-.53,9.79ZM535.03,114.43c-2.73-4.45-6.44-7.83-11.13-10.15-4.69-2.31-9.88-3.47-15.58-3.47-8.19,0-15.16,2.61-20.92,7.83-5.76,5.22-9.05,12.46-9.88,21.72h61.61c0-6.17-1.37-11.48-4.1-15.94Z"/>
    <path class="cls-1" d="M593.43,54.51v131.76h-16.2V54.51h16.2Z"/>
    <path class="cls-1" d="M635.45,184.05c-5.94-2.55-10.63-6.11-14.07-10.68-3.44-4.57-5.34-9.82-5.7-15.76h16.74c.47,4.87,2.76,8.84,6.86,11.93,4.1,3.09,9.46,4.63,16.11,4.63,6.17,0,11.04-1.36,14.6-4.1,3.56-2.73,5.34-6.17,5.34-10.33s-1.9-7.45-5.7-9.53c-3.8-2.08-9.68-4.12-17.63-6.14-7.24-1.9-13.15-3.83-17.72-5.79-4.57-1.96-8.49-4.87-11.75-8.73-3.27-3.86-4.9-8.93-4.9-15.22,0-4.99,1.48-9.55,4.45-13.71,2.97-4.15,7.18-7.45,12.64-9.88,5.46-2.43,11.69-3.65,18.7-3.65,10.8,0,19.53,2.73,26.17,8.19,6.65,5.46,10.21,12.94,10.68,22.43h-16.2c-.36-5.1-2.4-9.2-6.14-12.29-3.74-3.09-8.76-4.63-15.05-4.63-5.82,0-10.45,1.25-13.89,3.74-3.44,2.49-5.16,5.76-5.16,9.79,0,3.21,1.04,5.85,3.12,7.92,2.08,2.08,4.69,3.74,7.83,4.99,3.14,1.25,7.51,2.64,13.09,4.18,7,1.9,12.7,3.77,17.09,5.61,4.39,1.84,8.16,4.6,11.31,8.28,3.14,3.68,4.78,8.49,4.9,14.42,0,5.34-1.49,10.15-4.45,14.42-2.97,4.27-7.15,7.63-12.55,10.06-5.4,2.43-11.6,3.65-18.61,3.65-7.48,0-14.19-1.28-20.12-3.83Z"/>
    <path class="cls-1" d="M744.51,92.71c6.35-3.74,13.74-5.61,22.17-5.61s16.53,2.08,23.59,6.23c7.06,4.16,12.61,10,16.65,17.54,4.03,7.54,6.05,16.29,6.05,26.26s-2.02,18.64-6.05,26.35c-4.04,7.72-9.59,13.71-16.65,17.98-7.06,4.27-14.93,6.41-23.59,6.41s-15.64-1.87-21.99-5.61c-6.35-3.74-11.19-8.4-14.51-13.98v64.28h-16.2V88.7h16.2v17.98c3.21-5.58,7.98-10.24,14.33-13.98ZM791.96,117.9c-2.97-5.46-6.97-9.61-12.02-12.46-5.05-2.85-10.59-4.27-16.65-4.27s-11.43,1.46-16.47,4.36c-5.05,2.91-9.08,7.12-12.11,12.64-3.03,5.52-4.54,11.9-4.54,19.14s1.51,13.8,4.54,19.32c3.03,5.52,7.06,9.73,12.11,12.64,5.04,2.91,10.53,4.36,16.47,4.36s11.6-1.45,16.65-4.36c5.04-2.91,9.05-7.12,12.02-12.64,2.97-5.52,4.45-12.02,4.45-19.5s-1.49-13.77-4.45-19.23Z"/>
    <path class="cls-1" d="M1009.87,97.69c7.36,7.18,11.04,17.54,11.04,31.07v57.51h-16.03v-55.2c0-9.73-2.43-17.18-7.3-22.35-4.87-5.16-11.52-7.75-19.94-7.75s-15.34,2.67-20.39,8.01c-5.05,5.34-7.57,13.12-7.57,23.33v53.95h-16.2v-97.58h16.2v13.89c3.21-4.99,7.57-8.84,13.09-11.57,5.52-2.73,11.6-4.1,18.25-4.1,11.87,0,21.48,3.59,28.85,10.77Z"/>
  </g>
  <g>
    <path class="cls-1" d="M871.03,31.74c-28.4.03-51.36,23.02-51.36,51.42,0,7.53,1.62,14.69,4.53,21.14.13.45.29.89.48,1.33,0,0,25.49,48.83,40.12,76.84,2.65,5.08,9.93,5.08,12.58,0,14.62-28.01,40.12-76.84,40.12-76.84.19-.44.34-.89.48-1.33,2.91-6.45,4.53-13.6,4.53-21.14,0-28.42-23.05-51.45-51.48-51.42ZM856.46,143.6l-11.42-11.42,11.42-11.42,11.42,11.42-11.42,11.42ZM870.92,135.17l9.06,9.06-9.06,9.06-9.06-9.06,9.06-9.06ZM860.86,163.33l-6.99-6.99,6.99-6.99,6.99,6.99-6.99,6.99ZM870.95,167.51l-4.08-4.08,4.08-4.08,4.08,4.08-4.08,4.08ZM880.89,163.33l-6.99-6.99,6.99-6.99,6.99,6.99-6.99,6.99ZM885.31,143.53l-11.42-11.42,11.42-11.42,11.42,11.42-11.42,11.42ZM894.23,122.66l-8.45-8.45-14.75,14.75c-.08,0-.15,0-.23,0l-14.36-14.36-8.22,8.22c-13.59-7.9-22.73-22.61-22.73-39.46,0-25.19,20.42-45.6,45.6-45.6s45.6,20.42,45.6,45.6c0,16.74-9.02,31.37-22.46,39.3Z"/>
    <path class="cls-1" d="M865.86,84.61h-6.22c.36,3.23,2.07,6.05,4.55,7.88l3.11-5.38-1.44-2.5Z"/>
    <path class="cls-1" d="M869.47,88.36l-3.11,5.38c1.4.61,2.94.96,4.56.96s3.16-.34,4.56-.96l-3.11-5.38h-2.89Z"/>
    <path class="cls-1" d="M867.3,79.6l-3.11-5.38c-2.49,1.83-4.2,4.66-4.55,7.88h6.22l1.44-2.5Z"/>
    <path class="cls-1" d="M874.53,87.11l3.11,5.38c2.49-1.83,4.2-4.66,4.55-7.88h-6.22l-1.44,2.5Z"/>
    <polygon class="cls-1" points="869.47 80.85 868.03 83.36 869.47 85.86 872.36 85.86 873.81 83.36 872.36 80.85 869.47 80.85"/>
    <path class="cls-1" d="M872.36,78.35l3.11-5.38c-1.4-.61-2.94-.96-4.56-.96s-3.16.34-4.56.96l3.11,5.38h2.89Z"/>
    <path class="cls-1" d="M877.64,74.22l-3.11,5.38,1.44,2.5h6.22c-.36-3.23-2.07-6.05-4.55-7.88Z"/>
    <path class="cls-1" d="M883,65.31l-1.46,2.53-2.5-1.44,1.46-2.54c-2.49-1.23-5.24-1.99-8.15-2.19v2.93h-2.88v-2.93c-2.91.19-5.66.96-8.15,2.19l1.46,2.54-2.5,1.44-1.46-2.53c-2.35,1.58-4.38,3.61-5.96,5.96l2.53,1.46-1.44,2.5-2.54-1.46c-1.23,2.49-1.99,5.24-2.19,8.15h2.93v2.88h-2.93c.19,2.91.96,5.66,2.19,8.15l2.54-1.46,1.44,2.5-2.53,1.46c1.58,2.35,3.61,4.38,5.96,5.96l1.46-2.53,2.5,1.44-1.46,2.54c2.49,1.23,5.24,1.99,8.15,2.19v-2.93h2.88v2.93c2.91-.19,5.66-.96,8.15-2.19l-1.46-2.54,2.5-1.44,1.46,2.53c2.35-1.58,4.38-3.61,5.96-5.96l-2.53-1.46,1.44-2.5,2.54,1.46c1.23-2.49,1.99-5.24,2.19-8.15h-2.93v-2.88h2.93c-.19-2.91-.96-5.66-2.19-8.15l-2.54,1.46-1.44-2.5,2.53-1.46c-1.58-2.35-3.61-4.38-5.96-5.96ZM870.92,97.2c-2.47,0-4.79-.65-6.81-1.79-.04-.02-.08-.04-.12-.06-.04-.03-.09-.05-.13-.08-4.06-2.42-6.79-6.85-6.79-11.91,0-7.64,6.21-13.85,13.85-13.85s13.85,6.21,13.85,13.85-6.21,13.85-13.85,13.85Z"/>
    <path class="cls-1" d="M871.09,55.62c-15.32,0-27.73,12.42-27.73,27.73s12.42,27.73,27.73,27.73,27.73-12.42,27.73-27.73-12.42-27.73-27.73-27.73ZM870.92,107.97c-13.57,0-24.61-11.04-24.61-24.61s11.04-24.61,24.61-24.61,24.61,11.04,24.61,24.61-11.04,24.61-24.61,24.61Z"/>
  </g>
  <g>
    <path class="cls-1" d="M94.22,234.17h9.1v3.56h-13.52v-26.92h4.41v23.35Z"/>
    <path class="cls-1" d="M110.8,236.7c-1.63-.92-2.9-2.21-3.83-3.87-.93-1.67-1.39-3.6-1.39-5.79s.48-4.09,1.43-5.77,2.26-2.97,3.91-3.87c1.65-.9,3.5-1.36,5.54-1.36s3.89.45,5.54,1.36c1.65.9,2.96,2.2,3.91,3.87s1.43,3.6,1.43,5.77-.49,4.09-1.47,5.77c-.98,1.68-2.32,2.98-4.01,3.89-1.69.92-3.56,1.38-5.6,1.38s-3.83-.46-5.46-1.38ZM119.45,233.43c.99-.54,1.8-1.36,2.42-2.44.62-1.08.93-2.4.93-3.95s-.3-2.86-.89-3.93-1.38-1.88-2.36-2.42-2.04-.81-3.18-.81-2.19.27-3.16.81c-.97.54-1.74,1.35-2.3,2.42-.57,1.07-.85,2.38-.85,3.93,0,2.3.59,4.07,1.76,5.33,1.17,1.25,2.65,1.88,4.43,1.88,1.14,0,2.2-.27,3.2-.81Z"/>
    <path class="cls-1" d="M144.7,217.03c1.28.66,2.28,1.48,3,2.46v-3.1h4.45v21.69c0,1.96-.41,3.71-1.24,5.25-.83,1.54-2.02,2.74-3.58,3.62-1.56.88-3.43,1.32-5.6,1.32-2.89,0-5.29-.68-7.2-2.03s-2.99-3.19-3.25-5.52h4.38c.34,1.11,1.05,2.01,2.15,2.69,1.1.68,2.41,1.03,3.93,1.03,1.78,0,3.22-.54,4.32-1.63,1.1-1.09,1.65-2.66,1.65-4.72v-3.56c-.75,1.01-1.76,1.85-3.04,2.54s-2.73,1.03-4.36,1.03c-1.86,0-3.56-.47-5.09-1.41-1.54-.94-2.75-2.26-3.64-3.95-.89-1.69-1.34-3.61-1.34-5.75s.45-4.04,1.34-5.69c.89-1.65,2.1-2.94,3.64-3.85s3.23-1.38,5.09-1.38c1.65,0,3.12.33,4.4.99ZM146.79,223.21c-.61-1.08-1.4-1.91-2.38-2.48-.98-.57-2.04-.85-3.18-.85s-2.19.28-3.18.83-1.78,1.37-2.38,2.44-.91,2.34-.91,3.81.3,2.76.91,3.87c.61,1.11,1.41,1.96,2.4,2.54.99.58,2.05.87,3.16.87s2.19-.28,3.18-.85c.98-.57,1.77-1.4,2.38-2.5.61-1.1.91-2.38.91-3.85s-.3-2.75-.91-3.83Z"/>
    <path class="cls-1" d="M158.2,212.75c-.54-.54-.81-1.21-.81-2.01s.27-1.47.81-2.01c.54-.54,1.21-.81,2.01-.81s1.43.27,1.97.81c.54.54.81,1.21.81,2.01s-.27,1.47-.81,2.01c-.54.54-1.2.81-1.97.81s-1.47-.27-2.01-.81ZM162.38,216.39v21.34h-4.41v-21.34h4.41Z"/>
    <path class="cls-1" d="M171.42,237.17c-1.33-.61-2.38-1.43-3.16-2.48-.77-1.05-1.19-2.21-1.24-3.5h4.57c.08.9.51,1.66,1.3,2.27.79.61,1.77.91,2.96.91s2.2-.24,2.89-.72c.68-.48,1.03-1.09,1.03-1.84,0-.8-.38-1.39-1.14-1.78s-1.97-.81-3.62-1.28c-1.6-.44-2.9-.87-3.91-1.28-1.01-.41-1.88-1.05-2.61-1.9-.74-.85-1.1-1.98-1.1-3.37,0-1.14.34-2.17,1.01-3.12s1.63-1.69,2.89-2.23c1.25-.54,2.69-.81,4.32-.81,2.43,0,4.38.61,5.87,1.84,1.48,1.23,2.28,2.9,2.38,5.02h-4.41c-.08-.96-.47-1.72-1.16-2.29-.7-.57-1.64-.85-2.83-.85s-2.05.22-2.67.66c-.62.44-.93,1.02-.93,1.74,0,.57.21,1.05.62,1.43s.92.69,1.51.91c.59.22,1.47.5,2.63.83,1.55.41,2.82.83,3.81,1.26.99.43,1.85,1.05,2.58,1.88.72.83,1.1,1.92,1.12,3.29,0,1.21-.34,2.3-1.01,3.25s-1.62,1.7-2.85,2.25c-1.23.54-2.67.81-4.32.81s-3.18-.3-4.51-.91Z"/>
    <path class="cls-1" d="M194.02,219.99v11.81c0,.8.19,1.37.56,1.72.37.35,1.01.52,1.92.52h2.71v3.68h-3.48c-1.99,0-3.51-.47-4.57-1.39-1.06-.93-1.59-2.44-1.59-4.53v-11.81h-2.52v-3.6h2.52v-5.31h4.45v5.31h5.19v3.6h-5.19Z"/>
    <path class="cls-1" d="M203.51,212.75c-.54-.54-.81-1.21-.81-2.01s.27-1.47.81-2.01c.54-.54,1.21-.81,2.01-.81s1.43.27,1.97.81c.54.54.81,1.21.81,2.01s-.27,1.47-.81,2.01c-.54.54-1.2.81-1.97.81s-1.47-.27-2.01-.81ZM207.69,216.39v21.34h-4.41v-21.34h4.41Z"/>
    <path class="cls-1" d="M213.37,221.25c.89-1.67,2.12-2.95,3.7-3.85,1.57-.9,3.38-1.36,5.42-1.36,2.58,0,4.72.61,6.41,1.84,1.69,1.23,2.83,2.98,3.43,5.25h-4.76c-.39-1.06-1.01-1.88-1.86-2.48-.85-.59-1.92-.89-3.21-.89-1.81,0-3.25.64-4.32,1.92-1.07,1.28-1.61,3.07-1.61,5.36s.54,4.09,1.61,5.38c1.07,1.29,2.51,1.94,4.32,1.94,2.56,0,4.25-1.12,5.07-3.37h4.76c-.62,2.17-1.78,3.89-3.49,5.17-1.7,1.28-3.82,1.92-6.35,1.92-2.04,0-3.85-.46-5.42-1.38-1.58-.92-2.81-2.21-3.7-3.87-.89-1.67-1.34-3.6-1.34-5.79s.45-4.12,1.34-5.79Z"/>
    <path class="cls-1" d="M239.97,237.17c-1.33-.61-2.38-1.43-3.16-2.48-.77-1.05-1.19-2.21-1.24-3.5h4.57c.08.9.51,1.66,1.3,2.27.79.61,1.77.91,2.96.91s2.2-.24,2.89-.72c.68-.48,1.03-1.09,1.03-1.84,0-.8-.38-1.39-1.14-1.78s-1.97-.81-3.62-1.28c-1.6-.44-2.9-.87-3.91-1.28-1.01-.41-1.88-1.05-2.61-1.9-.74-.85-1.1-1.98-1.1-3.37,0-1.14.34-2.17,1.01-3.12s1.63-1.69,2.89-2.23c1.25-.54,2.69-.81,4.32-.81,2.43,0,4.38.61,5.87,1.84,1.48,1.23,2.28,2.9,2.38,5.02h-4.41c-.08-.96-.47-1.72-1.16-2.29-.7-.57-1.64-.85-2.83-.85s-2.05.22-2.67.66c-.62.44-.93,1.02-.93,1.74,0,.57.21,1.05.62,1.43s.92.69,1.51.91c.59.22,1.47.5,2.63.83,1.55.41,2.82.83,3.81,1.26.99.43,1.85,1.05,2.58,1.88.72.83,1.1,1.92,1.12,3.29,0,1.21-.34,2.3-1.01,3.25s-1.62,1.7-2.85,2.25c-1.23.54-2.67.81-4.32.81s-3.18-.3-4.51-.91Z"/>
    <path class="cls-1" d="M271.9,214.38v7.9h9.29v3.6h-9.29v8.25h10.46v3.6h-14.87v-26.96h14.87v3.6h-10.46Z"/>
    <path class="cls-1" d="M303.06,217.09c1.33.7,2.37,1.73,3.12,3.1.75,1.37,1.12,3.02,1.12,4.96v12.59h-4.38v-11.93c0-1.91-.48-3.38-1.43-4.4-.96-1.02-2.26-1.53-3.91-1.53s-2.96.51-3.93,1.53c-.97,1.02-1.45,2.49-1.45,4.4v11.93h-4.41v-21.34h4.41v2.44c.72-.88,1.65-1.56,2.77-2.05s2.32-.74,3.58-.74c1.68,0,3.18.35,4.51,1.05Z"/>
    <path class="cls-1" d="M318.07,219.99v11.81c0,.8.19,1.37.56,1.72.37.35,1.01.52,1.92.52h2.71v3.68h-3.48c-1.99,0-3.51-.47-4.57-1.39-1.06-.93-1.59-2.44-1.59-4.53v-11.81h-2.52v-3.6h2.52v-5.31h4.45v5.31h5.19v3.6h-5.19Z"/>
    <path class="cls-1" d="M346.73,228.71h-16.31c.13,1.7.76,3.07,1.9,4.1,1.14,1.03,2.53,1.55,4.18,1.55,2.38,0,4.05-.99,5.03-2.98h4.76c-.65,1.96-1.81,3.57-3.5,4.82-1.69,1.25-3.79,1.88-6.29,1.88-2.04,0-3.87-.46-5.48-1.38-1.61-.92-2.88-2.21-3.79-3.87-.92-1.67-1.38-3.6-1.38-5.79s.45-4.12,1.34-5.79c.89-1.67,2.14-2.95,3.76-3.85,1.61-.9,3.47-1.36,5.56-1.36s3.81.44,5.38,1.32c1.57.88,2.8,2.11,3.68,3.7s1.32,3.41,1.32,5.48c0,.8-.05,1.52-.15,2.17ZM342.27,225.14c-.03-1.63-.61-2.93-1.74-3.91-1.14-.98-2.54-1.47-4.22-1.47-1.52,0-2.83.48-3.91,1.45-1.08.97-1.73,2.28-1.94,3.93h11.81Z"/>
    <path class="cls-1" d="M358.21,216.95c1.07-.61,2.34-.91,3.81-.91v4.57h-1.12c-1.73,0-3.04.44-3.93,1.32-.89.88-1.34,2.4-1.34,4.57v11.23h-4.41v-21.34h4.41v3.1c.65-1.09,1.5-1.93,2.58-2.54Z"/>
    <path class="cls-1" d="M373.56,217.05c1.29-.67,2.75-1.01,4.38-1.01,1.86,0,3.56.46,5.09,1.38,1.54.92,2.74,2.2,3.62,3.85.88,1.65,1.32,3.55,1.32,5.69s-.44,4.06-1.32,5.75c-.88,1.69-2.09,3.01-3.62,3.95-1.54.94-3.23,1.41-5.09,1.41-1.63,0-3.07-.33-4.34-.99-1.27-.66-2.3-1.48-3.1-2.46v13.24h-4.41v-31.49h4.41v3.14c.75-.98,1.77-1.81,3.06-2.48ZM382.57,223.15c-.61-1.07-1.41-1.88-2.4-2.44-1-.56-2.06-.83-3.2-.83s-2.16.28-3.16.85c-1,.57-1.8,1.39-2.4,2.48-.61,1.09-.91,2.36-.91,3.83s.3,2.76.91,3.85,1.41,1.93,2.4,2.5c.99.57,2.05.85,3.16.85s2.2-.29,3.2-.87c.99-.58,1.79-1.43,2.4-2.54.61-1.11.91-2.4.91-3.87s-.3-2.74-.91-3.81Z"/>
    <path class="cls-1" d="M399.34,216.95c1.07-.61,2.34-.91,3.81-.91v4.57h-1.12c-1.73,0-3.04.44-3.93,1.32-.89.88-1.34,2.4-1.34,4.57v11.23h-4.41v-21.34h4.41v3.1c.65-1.09,1.5-1.93,2.58-2.54Z"/>
    <path class="cls-1" d="M407.45,212.75c-.54-.54-.81-1.21-.81-2.01s.27-1.47.81-2.01c.54-.54,1.21-.81,2.01-.81s1.43.27,1.97.81c.54.54.81,1.21.81,2.01s-.27,1.47-.81,2.01c-.54.54-1.2.81-1.97.81s-1.47-.27-2.01-.81ZM411.63,216.39v21.34h-4.41v-21.34h4.41Z"/>
    <path class="cls-1" d="M420.68,237.17c-1.33-.61-2.38-1.43-3.16-2.48-.77-1.05-1.19-2.21-1.24-3.5h4.57c.08.9.51,1.66,1.3,2.27.79.61,1.77.91,2.96.91s2.2-.24,2.89-.72c.68-.48,1.03-1.09,1.03-1.84,0-.8-.38-1.39-1.14-1.78s-1.97-.81-3.62-1.28c-1.6-.44-2.9-.87-3.91-1.28-1.01-.41-1.88-1.05-2.61-1.9-.74-.85-1.1-1.98-1.1-3.37,0-1.14.34-2.17,1.01-3.12s1.63-1.69,2.89-2.23c1.25-.54,2.69-.81,4.32-.81,2.43,0,4.38.61,5.87,1.84,1.48,1.23,2.28,2.9,2.38,5.02h-4.41c-.08-.96-.47-1.72-1.16-2.29-.7-.57-1.64-.85-2.83-.85s-2.05.22-2.67.66c-.62.44-.93,1.02-.93,1.74,0,.57.21,1.05.62,1.43s.92.69,1.51.91c.59.22,1.47.5,2.63.83,1.55.41,2.82.83,3.81,1.26.99.43,1.85,1.05,2.58,1.88.72.83,1.1,1.92,1.12,3.29,0,1.21-.34,2.3-1.01,3.25s-1.62,1.7-2.85,2.25c-1.23.54-2.67.81-4.32.81s-3.18-.3-4.51-.91Z"/>
    <path class="cls-1" d="M457.53,228.71h-16.31c.13,1.7.76,3.07,1.9,4.1,1.14,1.03,2.53,1.55,4.18,1.55,2.38,0,4.05-.99,5.03-2.98h4.76c-.65,1.96-1.81,3.57-3.5,4.82-1.69,1.25-3.79,1.88-6.29,1.88-2.04,0-3.87-.46-5.48-1.38-1.61-.92-2.88-2.21-3.79-3.87-.92-1.67-1.38-3.6-1.38-5.79s.45-4.12,1.34-5.79c.89-1.67,2.14-2.95,3.76-3.85,1.61-.9,3.47-1.36,5.56-1.36s3.81.44,5.38,1.32c1.57.88,2.8,2.11,3.68,3.7s1.32,3.41,1.32,5.48c0,.8-.05,1.52-.15,2.17ZM453.07,225.14c-.03-1.63-.61-2.93-1.74-3.91-1.14-.98-2.54-1.47-4.22-1.47-1.52,0-2.83.48-3.91,1.45-1.08.97-1.73,2.28-1.94,3.93h11.81Z"/>
    <path class="cls-1" d="M489.94,222.7c-.65,1.21-1.68,2.2-3.1,2.96-1.42.76-3.24,1.14-5.46,1.14h-4.88v10.92h-4.41v-26.92h9.29c2.07,0,3.81.36,5.25,1.07,1.43.71,2.5,1.67,3.21,2.89s1.07,2.57,1.07,4.07c0,1.37-.32,2.66-.97,3.87ZM485.14,222.07c.83-.76,1.24-1.84,1.24-3.23,0-2.94-1.67-4.41-5-4.41h-4.88v8.79h4.88c1.68,0,2.93-.38,3.76-1.14Z"/>
    <path class="cls-1" d="M499.55,209.07v28.66h-4.41v-28.66h4.41Z"/>
    <path class="cls-1" d="M505.22,221.27c.89-1.65,2.1-2.94,3.64-3.85s3.23-1.38,5.09-1.38c1.68,0,3.14.33,4.4.99,1.25.66,2.25,1.48,3,2.46v-3.1h4.45v21.34h-4.45v-3.18c-.75,1.01-1.77,1.85-3.06,2.52-1.29.67-2.76,1.01-4.41,1.01-1.83,0-3.51-.47-5.03-1.41-1.52-.94-2.73-2.26-3.62-3.95-.89-1.69-1.34-3.61-1.34-5.75s.45-4.04,1.34-5.69ZM520.44,223.21c-.61-1.08-1.4-1.91-2.38-2.48-.98-.57-2.04-.85-3.18-.85s-2.19.28-3.18.83-1.78,1.37-2.38,2.44-.91,2.34-.91,3.81.3,2.76.91,3.87c.61,1.11,1.41,1.96,2.4,2.54.99.58,2.05.87,3.16.87s2.19-.28,3.18-.85c.98-.57,1.77-1.4,2.38-2.5.61-1.1.91-2.38.91-3.85s-.3-2.75-.91-3.83Z"/>
    <path class="cls-1" d="M536.77,219.99v11.81c0,.8.19,1.37.56,1.72.37.35,1.01.52,1.92.52h2.71v3.68h-3.48c-1.99,0-3.51-.47-4.57-1.39-1.06-.93-1.59-2.44-1.59-4.53v-11.81h-2.52v-3.6h2.52v-5.31h4.45v5.31h5.19v3.6h-5.19Z"/>
    <path class="cls-1" d="M554.97,219.99h-3.95v17.74h-4.45v-17.74h-2.52v-3.6h2.52v-1.51c0-2.45.65-4.24,1.96-5.36,1.3-1.12,3.35-1.69,6.14-1.69v3.68c-1.34,0-2.29.25-2.83.76-.54.5-.81,1.38-.81,2.61v1.51h3.95v3.6Z"/>
    <path class="cls-1" d="M562.67,236.7c-1.63-.92-2.9-2.21-3.83-3.87-.93-1.67-1.39-3.6-1.39-5.79s.48-4.09,1.43-5.77,2.26-2.97,3.91-3.87c1.65-.9,3.5-1.36,5.54-1.36s3.89.45,5.54,1.36c1.65.9,2.96,2.2,3.91,3.87s1.43,3.6,1.43,5.77-.49,4.09-1.47,5.77c-.98,1.68-2.32,2.98-4.01,3.89-1.69.92-3.56,1.38-5.6,1.38s-3.83-.46-5.46-1.38ZM571.33,233.43c.99-.54,1.8-1.36,2.42-2.44.62-1.08.93-2.4.93-3.95s-.3-2.86-.89-3.93-1.38-1.88-2.36-2.42-2.04-.81-3.18-.81-2.19.27-3.16.81c-.97.54-1.74,1.35-2.3,2.42-.57,1.07-.85,2.38-.85,3.93,0,2.3.59,4.07,1.76,5.33,1.17,1.25,2.65,1.88,4.43,1.88,1.14,0,2.2-.27,3.2-.81Z"/>
    <path class="cls-1" d="M590.58,216.95c1.07-.61,2.34-.91,3.81-.91v4.57h-1.12c-1.73,0-3.04.44-3.93,1.32-.89.88-1.34,2.4-1.34,4.57v11.23h-4.41v-21.34h4.41v3.1c.65-1.09,1.5-1.93,2.58-2.54Z"/>
    <path class="cls-1" d="M628.8,217.09c1.33.7,2.38,1.73,3.14,3.1.76,1.37,1.14,3.02,1.14,4.96v12.59h-4.38v-11.93c0-1.91-.48-3.38-1.43-4.4-.96-1.02-2.26-1.53-3.91-1.53s-2.96.51-3.93,1.53c-.97,1.02-1.45,2.49-1.45,4.4v11.93h-4.38v-11.93c0-1.91-.48-3.38-1.43-4.4-.96-1.02-2.26-1.53-3.91-1.53s-2.96.51-3.93,1.53c-.97,1.02-1.45,2.49-1.45,4.4v11.93h-4.41v-21.34h4.41v2.44c.72-.88,1.64-1.56,2.75-2.05s2.3-.74,3.56-.74c1.7,0,3.23.36,4.57,1.08,1.34.72,2.38,1.77,3.1,3.14.65-1.29,1.65-2.32,3.02-3.08s2.84-1.14,4.41-1.14c1.68,0,3.18.35,4.51,1.05Z"/>
  </g>
</svg>