<?xml version="1.0" encoding="UTF-8"?>
<svg id="Layer_1" data-name="Layer 1" xmlns="http://www.w3.org/2000/svg" viewBox="0 0 64 64">
  <defs>
    <style>
      .cls-1 {
        fill: #806cb1;
      }
    </style>
  </defs>
  <path class="cls-1" d="M31.98,6.17c-9.49.01-17.17,7.69-17.17,17.19,0,2.52.54,4.91,1.51,7.07.04.15.1.3.16.45,0,0,8.52,16.32,13.41,25.68.89,1.7,3.32,1.7,4.21,0,4.89-9.36,13.41-25.68,13.41-25.68.06-.15.12-.3.16-.45.97-2.16,1.51-4.55,1.51-7.07,0-9.5-7.7-17.2-17.21-17.19ZM27.11,43.56l-3.82-3.82,3.82-3.82,3.82,3.82-3.82,3.82ZM31.94,40.74l3.03,3.03-3.03,3.03-3.03-3.03,3.03-3.03ZM28.58,50.16l-2.34-2.34,2.34-2.34,2.34,2.34-2.34,2.34ZM31.95,51.56l-1.36-1.36,1.36-1.36,1.36,1.36-1.36,1.36ZM35.28,50.16l-2.34-2.34,2.34-2.34,2.34,2.34-2.34,2.34ZM36.75,43.54l-3.82-3.82,3.82-3.82,3.82,3.82-3.82,3.82ZM39.73,36.56l-2.83-2.83-4.93,4.93s-.05,0-.08,0l-4.8-4.8-2.75,2.75c-4.54-2.64-7.6-7.56-7.6-13.19,0-8.42,6.82-15.24,15.24-15.24s15.24,6.82,15.24,15.24c0,5.59-3.02,10.48-7.51,13.14Z"/>
  <path class="cls-1" d="M30.25,23.85h-2.08c.12,1.08.69,2.02,1.52,2.63l1.04-1.8-.48-.84Z"/>
  <path class="cls-1" d="M31.46,25.1l-1.04,1.8c.47.21.98.32,1.52.32s1.06-.11,1.52-.32l-1.04-1.8h-.97Z"/>
  <path class="cls-1" d="M30.74,22.17l-1.04-1.8c-.83.61-1.4,1.56-1.52,2.63h2.08l.48-.84Z"/>
  <path class="cls-1" d="M33.15,24.68l1.04,1.8c.83-.61,1.4-1.56,1.52-2.63h-2.08l-.48.84Z"/>
  <polygon class="cls-1" points="31.46 22.59 30.98 23.43 31.46 24.26 32.43 24.26 32.91 23.43 32.43 22.59 31.46 22.59"/>
  <path class="cls-1" d="M32.43,21.75l1.04-1.8c-.47-.21-.98-.32-1.52-.32s-1.06.11-1.52.32l1.04,1.8h.97Z"/>
  <path class="cls-1" d="M34.19,20.38l-1.04,1.8.48.84h2.08c-.12-1.08-.69-2.02-1.52-2.63Z"/>
  <path class="cls-1" d="M35.98,17.4l-.49.85-.83-.48.49-.85c-.83-.41-1.75-.67-2.72-.73v.98h-.96v-.98c-.97.06-1.89.32-2.72.73l.49.85-.83.48-.49-.85c-.79.53-1.46,1.21-1.99,1.99l.85.49-.48.83-.85-.49c-.41.83-.67,1.75-.73,2.72h.98v.96h-.98c.06.97.32,1.89.73,2.72l.85-.49.48.83-.85.49c.53.79,1.21,1.46,1.99,1.99l.49-.85.83.48-.49.85c.83.41,1.75.67,2.72.73v-.98h.96v.98c.97-.06,1.89-.32,2.72-.73l-.49-.85.83-.48.49.85c.79-.53,1.46-1.21,1.99-1.99l-.85-.49.48-.83.85.49c.41-.83.67-1.75.73-2.72h-.98v-.96h.98c-.06-.97-.32-1.89-.73-2.72l-.85.49-.48-.83.85-.49c-.53-.79-1.21-1.46-1.99-1.99ZM31.94,28.06c-.83,0-1.6-.22-2.27-.6-.01,0-.03-.01-.04-.02-.01,0-.03-.02-.04-.03-1.36-.81-2.27-2.29-2.27-3.98,0-2.55,2.08-4.63,4.63-4.63s4.63,2.08,4.63,4.63-2.08,4.63-4.63,4.63Z"/>
  <path class="cls-1" d="M32,14.16c-5.12,0-9.27,4.15-9.27,9.27s4.15,9.27,9.27,9.27,9.27-4.15,9.27-9.27-4.15-9.27-9.27-9.27ZM31.94,31.65c-4.54,0-8.23-3.69-8.23-8.23s3.69-8.23,8.23-8.23,8.23,3.69,8.23,8.23-3.69,8.23-8.23,8.23Z"/>
</svg>